<svg xmlns="http://www.w3.org/2000/svg" viewBox="0 0 748.008949 886.822382" fill="none" aria-label="Platon Code">
<g transform="translate(-9.995515,896.930572) scale(0.100000,-0.100000)" fill="#2563EB" fill-rule="evenodd">
<path d="M3790 8941 c-25 -16 -151 -90 -280 -166 -129 -76 -316 -186 -415
-245 -156 -92 -462 -272 -885 -520 -293 -172 -883 -518 -955 -560 -107 -62
-282 -165 -435 -256 -69 -41 -258 -152 -420 -248 l-295 -173 -3 -2185 -2
-2185 392 -236 c216 -130 485 -292 598 -360 l205 -125 6 577 c3 317 7 1019 8
1561 0 542 4 1271 8 1620 l6 635 91 54 c83 49 686 406 1241 734 121 72 274
163 340 202 100 60 533 317 784 466 l63 37 82 -48 c44 -26 171 -100 281 -165
110 -65 247 -146 305 -180 58 -34 213 -126 345 -205 132 -78 287 -171 345
-205 198 -116 705 -417 933 -553 l227 -135 -2 -1390 -3 -1390 -525 -308 c-289
-170 -583 -344 -655 -386 -291 -172 -512 -303 -740 -438 -320 -190 -586 -345
-591 -345 -2 0 -3 340 -2 757 l3 756 165 99 c91 54 208 123 260 154 52 31 133
80 180 109 98 60 239 144 428 257 l132 79 0 648 0 649 -52 33 c-29 18 -100 60
-158 94 -58 34 -276 163 -485 287 -209 124 -401 237 -428 253 l-47 27 -153
-91 c-83 -50 -345 -205 -582 -345 l-430 -255 -2 -2248 -3 -2248 283 -171 c629
-382 876 -532 898 -548 31 -22 42 -20 54 6 6 15 105 81 270 181 143 86 321
195 395 240 123 76 270 166 660 403 74 45 205 124 290 176 202 124 1871 1151
1975 1215 l80 50 3 2195 2 2195 -25 11 c-14 7 -114 64 -223 128 -360 214 -610
360 -1257 741 -741 436 -995 585 -1275 748 -30 17 -116 68 -190 112 -469 277
-769 453 -772 452 -2 0 -23 -13 -48 -28z"/>
</g>
</svg>